<svg xmlns="http://www.w3.org/2000/svg" width="38" height="38"><defs><filter id="a" width="215.9%" height="192.9%" x="-57.9%" y="-46.4%" filterUnits="objectBoundingBox"><feOffset dx="1" dy="1" in="SourceAlpha" result="shadowOffsetOuter1"/><feGaussianBlur in="shadowOffsetOuter1" result="shadowBlurOuter1" stdDeviation="1"/><feColorMatrix in="shadowBlurOuter1" result="shadowMatrixOuter1" values="0 0 0 0 0 0 0 0 0 0 0 0 0 0 0 0 0 0 0.5 0"/><feMerge><feMergeNode in="shadowMatrixOuter1"/><feMergeNode in="SourceGraphic"/></feMerge></filter></defs><g fill="none" fill-rule="evenodd"><path fill="#FFF" d="m31.213 4.313 6.498 17.854-12.213 14.555-18.711-3.3L.289 15.569 12.502 1.014z"/><path fill="red" stroke="#FFF" stroke-opacity=".5" stroke-width=".5" d="M13.626 4.104 29.1 6.832l5.374 14.764-10.1 12.036-15.472-2.729L3.527 16.14l10.1-12.036Z"/><path fill="#FFF" fill-opacity=".248" stroke="#FFF" stroke-opacity=".5" stroke-width=".5" d="M13.626 4.104 29.1 6.832l5.374 14.764-9.916 11.817-5.454-14.668L3.71 15.921l9.915-11.817Z"/><path stroke="#FFF" stroke-linecap="round" stroke-linejoin="round" stroke-opacity=".601" stroke-width=".5" d="m29.033 6.936-9.988 11.726"/><g fill="#FFF" fill-rule="nonzero" filter="url(#a)" transform="translate(13 12)"><path d="M4.76 14V8.5L0 0h1.96l3.66 6.8L9.32 0h1.9L6.5 8.46V14z"/></g><path fill="#FFF200" d="m3.936 25.612 30.945-11.263 2.84 7.801L6.776 33.413z"/><text fill="#000" font-family="Overpass-Black, Overpass" font-size="7" font-weight="800" letter-spacing="1" transform="rotate(-21 21.581 23.625)"><tspan x="10.081" y="26.125">BETA</tspan></text></g></svg>